<?xml version="1.0"?>
<svg xmlns="http://www.w3.org/2000/svg" xmlns:xlink="http://www.w3.org/1999/xlink" xmlns:svgjs="http://svgjs.com/svgjs" version="1.1" width="512" height="512" x="0" y="0" viewBox="0 0 496 496" style="enable-background:new 0 0 512 512" xml:space="preserve" class=""><g><path xmlns="http://www.w3.org/2000/svg" d="m304 416h32v16h-32zm0 0" fill="#eee9e9" data-original="#000000" style="" class=""/><path xmlns="http://www.w3.org/2000/svg" d="m496 144v-112c0-8.824219-7.175781-16-16-16h-64v.144531c-13.800781-10.410156-30.640625-16.144531-48-16.144531-2.816406 0-5.617188.167969-8.527344.449219-18.535156 1.976562-35.519531 10.328125-48.441406 23.550781h-75.71875l-24-24h-45.738281l-24 16h-125.574219c-8.824219 0-16 7.175781-16 16v112c0 8.824219 7.175781 16 16 16h16v32h16v192h-32c-8.824219 0-16 7.175781-16 16v32c0 2.929688.847656 5.640625 2.222656 8-1.375 2.359375-2.222656 5.070312-2.222656 8v32c0 8.824219 7.175781 16 16 16h128c8.824219 0 16-7.175781 16-16v-32c0-2.929688-.847656-5.640625-2.222656-8 1.375-2.359375 2.222656-5.070312 2.222656-8v-32c0-8.824219-7.175781-16-16-16h-32v-192h16v-32h32v32h16v256c0 13.230469 10.769531 24 24 24h41.136719c3.574219 13.769531 15.992187 24 30.863281 24s27.289062-10.230469 30.863281-24h90.273438c3.574219 13.769531 15.992187 24 30.863281 24s27.289062-10.230469 30.863281-24h17.136719c13.230469 0 24-10.769531 24-24v-62.160156c0-6.167969-2.3125-12.015625-6.480469-16.433594l-9.519531-10.199219v-199.207031c8.824219 0 16-7.175781 16-16zm-80.144531 0c10.847656-8.113281 19.671875-18.929688 25.28125-31.679688 2.335937-5.191406 4.054687-10.679687 5.191406-16.320312h33.671875v48zm62.007812 236.375c1.375 1.457031 2.136719 3.402344 2.136719 5.464844v6.160156h-16.238281c-.722657-11.761719-3.089844-23.207031-6.90625-34.152344zm-152.261719-322.992188 10.429688 21.128907.121094-.054688c-.023438.511719-.152344 1.007813-.152344 1.542969 0 3.488281.726562 6.832031 1.800781 10.046875l-20.226562-1.34375-8.132813 16.578125c-3.433594-7.96875-5.441406-16.5625-5.441406-25.28125 0-7.441406 1.3125-14.601562 3.785156-21.441406zm1.613282 47.992188 23.457031 1.570312.015625-.210937c3.335938 2.175781 7 3.722656 10.855469 4.53125l-11.152344 16.726563 10.210937 15.335937c-15.9375-1.96875-30.746093-9.695313-41.21875-21.984375zm36.105468-40.613281c1.320313-.503907 2.894532-.761719 4.679688-.761719 3.832031 0 7.574219 1.449219 10.535156 4.070312l.097656.082032c3.464844 2.96875 5.367188 7.175781 5.367188 11.847656 0 1.144531-.105469 2.222656-.304688 3.230469-1.175781 5.617187-5.238281 10.167969-11.015624 12.007812-4.167969 1.5625-10.839844.570313-15.3125-3.390625-3.464844-2.96875-5.367188-7.175781-5.367188-11.847656 0-1.144531.105469-2.222656.304688-3.230469 1.183593-5.617187 5.238281-10.167969 11.015624-12.007812zm63.230469-10.042969c3.441407 7.96875 5.449219 16.5625 5.449219 25.28125 0 2.320312-.144531 4.640625-.433594 7.0625-.542968 5.007812-1.824218 9.769531-3.488281 14.394531l-17.679687 1.167969-10.429688-21.128906-.121094.054687c.023438-.519531.152344-1.015625.152344-1.550781 0-3.488281-.726562-6.832031-1.800781-10.046875l20.226562 1.34375zm-34.65625 46.554688 8.914063 18.03125 18.480468-1.265626c-9.609374 12.945313-23.824218 21.882813-39.824218 24.800782l-9.855469-14.832032 13.046875-19.566406-.0625-.042968c3.527344-1.789063 6.6875-4.199219 9.300781-7.125zm88.105469-21.273438h-32c0-16.886719-5.496094-33.648438-15.472656-47.199219-.199219-.28125-.449219-.519531-.65625-.800781h48.128906zm-63.367188-41.382812-7.847656 16.007812-23.457031-1.570312-.015625.21875c-3.335938-2.175782-7-3.722657-10.855469-4.539063l11.152344-16.726563-10.34375-15.542968c12.621094 1.445312 24.605469 6.605468 34.351563 14.992187 2.527343 2.144531 4.832031 4.589844 7.015624 7.160157zm-60.152343-21.546876 9.910156 14.921876-13.046875 19.566406.0625.042968c-3.527344 1.789063-6.6875 4.191407-9.300781 7.125l-8.914063-18.03125-18.390625 1.265626c.886719-1.183594 1.664063-2.425782 2.648438-3.5625 9.613281-11.277344 22.671875-18.710938 37.03125-21.328126zm-204.480469 11.210938 18.425781-12.28125h34.261719l24 24h70.234375c-1.457031 2.519531-2.921875 5.046875-4.066406 7.679688-3.464844 7.703124-5.617188 15.863281-6.449219 24.320312h-59.726562l-24 24h-34.265626l-18.414062-12.28125v-3.71875h40v-48h-40zm-136 67.71875h32v-16h-32v-48h120v16h40v16h-40v16h-72v16h77.574219l24 16h45.738281l24-24h53.144531c1.445313 14.121094 6.613281 27.808594 14.992188 39.175781 4.742187 6.519531 10.488281 12.097657 16.824219 16.824219h-304.273438zm91.71875 304 10.664062 16-10.664062 16h-20.765625l10.664063-16-10.664063-16zm10.664062 64-10.664062 16h-20.765625l10.664063-16-10.664063-16h20.765625zm-50.664062-16 10.664062 16-10.664062 16h-20.765625l10.664063-16-10.664063-16zm0-48 10.664062 16-10.664062 16h-20.765625l10.664063-16-10.664063-16zm-51.71875 0h11.71875l10.664062 16-10.664062 16h-11.71875zm0 48h11.71875l10.664062 16-10.664062 16h-11.71875zm128 32h-17.046875l10.664063-16-10.664063-16h17.046875zm0-48h-17.046875l10.664063-16-10.664063-16h17.046875zm-48-48h-32v-192h32zm16-208h-64v-16h64zm320-16v16h-256v-16zm0 32v128h-129.039062c-6.617188 0-13.015626 2.800781-17.527344 7.65625l-40.089844 42.976562c-1.015625 1.09375-2.367188 1.886719-3.839844 2.246094l-47.351562 11.832032c-.746094.183593-1.433594.480468-2.152344.730468v-193.441406zm-160 288c-8.824219 0-16-7.175781-16-16s7.175781-16 16-16c4.664062 0 8.113281 1.992188 10.175781 3.664062l2.023438-2.511718.191406-.054688-2.144531 2.65625c3.65625 2.941406 5.753906 7.40625 5.753906 12.246094 0 8.824219-7.175781 16-16 16zm144-99.761719c0 1.304688-.046875 2.523438-.089844 3.761719h-116.597656l16-16h100.6875zm-22.902344 75.761719h-90.1875c-1.429687-5.625-4.429687-10.632812-8.613281-14.6875-4.058594-13.328125-6.128906-27.214844-6.25-41.3125h126.386719c-1.890625 13.953125-5.753906 27.496094-11.679688 40.367188-4.675781 4.191406-8.082031 9.585937-9.65625 15.632812zm30.902344 24c-8.824219 0-16-7.175781-16-16 0-5 2.359375-9.753906 6.359375-12.753906 2.769531-2.085938 6.183594-3.246094 9.640625-3.246094 8.824219 0 16 7.175781 16 16s-7.175781 16-16 16zm48-24h-17.136719c-3.574219-13.769531-15.992187-24-30.863281-24-.257812 0-.511719.054688-.769531.0625 4.371093-12.726562 7.175781-25.871094 8.167969-39.230469.410156-3.945312.601562-8.046875.601562-12.59375v-12.238281c0-8.824219-7.175781-16-16-16h-107.3125l-36.6875 36.6875v10.03125c0 11.371094 1.265625 22.601562 3.585938 33.59375-1.195313-.136719-2.386719-.3125-3.585938-.3125-14.871094 0-27.289062 10.230469-30.863281 24h-41.136719c-4.414062 0-8-3.585938-8-8v-24.046875c17.121094-.136719 34.113281-2.914063 50.511719-8.351563l-5.03125-15.1875c-14.785157 4.90625-30.082031 7.410157-45.472657 7.546876.023438-3.664063 2.480469-6.832032 6.007813-7.714844l47.3125-11.820313c4.496094-1.097656 8.550781-3.480469 11.726563-6.875l40.089843-42.976562c1.511719-1.644531 3.632813-2.574219 5.816407-2.574219h124.847656c13.175781 18.855469 20.191406 40.871094 20.191406 64v8h32v16h-24v16h24v8c0 4.414062-3.585938 8-8 8zm-8-113.945312-13.390625-14.351563c-.800781-.871094-1.699219-1.632813-2.609375-2.367187v-165.335938h16zm0 0" fill="#eee9e9" data-original="#000000" style="" class=""/><path xmlns="http://www.w3.org/2000/svg" d="m400 208h-160v96h160zm-144 16h56v64h-56zm128 64h-56v-64h56zm0 0" fill="#eee9e9" data-original="#000000" style="" class=""/></g></svg>
