<?xml version="1.0"?>
<svg xmlns="http://www.w3.org/2000/svg" xmlns:xlink="http://www.w3.org/1999/xlink" xmlns:svgjs="http://svgjs.com/svgjs" version="1.1" width="512" height="512" x="0" y="0" viewBox="0 0 512 512" style="enable-background:new 0 0 512 512" xml:space="preserve" class=""><g><g xmlns="http://www.w3.org/2000/svg"><circle cx="256" cy="256" r="10" fill="#eee9e9" data-original="#000000" style="" class=""/><path d="m472 256c0-119.344-97.155-215.98-216-215.98-119.307 0-216 97.012-216 215.98 0 119.594 97.389 216 216 216 119.407 0 216-97.202 216-216zm-62.173 121.33-83.474-80.716 111.721 31.958c-7.007 17.545-16.47 33.879-28.247 48.758zm-153.827-91.33c-16.406 0-30-13.314-30-30 0-16.67 13.579-30 30-30 16.406 0 30 13.314 30 30 0 16.67-13.579 30-30 30zm-153.826 91.331c-11.778-14.881-21.241-31.215-28.248-48.759l111.721-31.958zm-42.174-121.331c0-18.261 2.513-36.253 7.459-53.62l140.399 40.161c-1.217 4.365-1.858 8.893-1.858 13.459s.641 9.094 1.859 13.458l-140.4 40.162c-4.946-17.368-7.459-35.359-7.459-53.62zm42.174-121.331 83.473 80.717-111.721-31.958c7.008-17.545 16.47-33.879 28.248-48.759zm307.652 0c11.778 14.881 21.241 31.215 28.248 48.76l-111.721 31.958zm-105.684 134.789c1.217-4.364 1.858-8.892 1.858-13.458s-.641-9.094-1.858-13.458l140.399-40.161c4.946 17.367 7.459 35.358 7.459 53.619s-2.513 36.253-7.459 53.62zm92.479-149.841-104.889 101.426c-6.395-6.519-14.479-11.187-23.319-13.466l35.415-141.659c35.031 8.852 67.419 27.594 92.793 53.699zm-112.437-57.584-28.184 112.736-28.184-112.736c9.313-1.345 18.753-2.033 28.184-2.033s18.871.688 28.184 2.033zm-76.012 3.885 35.419 141.678c-8.839 2.279-16.916 6.943-23.31 13.46l-104.901-101.439c25.375-26.106 57.762-44.848 92.792-53.699zm-92.792 326.465 104.902-101.439c6.394 6.518 14.471 11.181 23.31 13.46l-35.419 141.678c-35.032-8.852-67.42-27.594-92.793-53.699zm112.437 57.581 28.183-112.733 28.183 112.733c-9.31 1.34-18.746 2.01-28.183 2.01s-18.874-.67-28.183-2.01zm134.656-29.553-7.813-13.531c-2.762-4.782-8.878-6.421-13.661-3.66-4.783 2.762-6.421 8.878-3.66 13.66l7.829 13.559c-13.14 6.753-27.019 12.025-41.341 15.644l-35.419-141.678c8.839-2.279 16.916-6.943 23.31-13.46l104.902 101.438c-10.32 10.617-21.8 20.016-34.147 28.028z" fill="#eee9e9" data-original="#000000" style="" class=""/><circle cx="430.001" cy="430" r="10" fill="#eee9e9" data-original="#000000" style="" class=""/><path d="m256 0c-141.582 0-256 114.384-256 256 0 141.581 114.383 256 256 256 52.165 0 102.336-15.56 145.092-44.997 4.549-3.132 5.698-9.358 2.565-13.907-3.131-4.549-9.358-5.696-13.907-2.565-39.404 27.129-85.654 41.469-133.75 41.469-130.131 0-236-105.869-236-236s105.869-236 236-236 236 105.869 236 236c0 48.094-14.34 94.344-41.47 133.749-3.132 4.549-1.983 10.775 2.566 13.907 4.549 3.131 10.775 1.981 13.908-2.566 29.436-42.756 44.996-92.927 44.996-145.09 0-141.581-114.383-256-256-256z" fill="#eee9e9" data-original="#000000" style="" class=""/></g></g></svg>
